<svg xmlns="http://www.w3.org/2000/svg" xmlns:xlink="http://www.w3.org/1999/xlink" width="500" zoomAndPan="magnify" viewBox="0 0 375 374.999991" height="500" preserveAspectRatio="xMidYMid meet" version="1.0"><defs><filter x="0%" y="0%" width="100%" height="100%" id="8f24365e6d"><feColorMatrix values="0 0 0 0 1 0 0 0 0 1 0 0 0 0 1 0 0 0 1 0" color-interpolation-filters="sRGB"/></filter><clipPath id="85712e9c8e"><path d="M 16 66.304688 L 374.871094 66.304688 L 374.871094 308.554688 L 16 308.554688 Z M 16 66.304688 " clip-rule="nonzero"/></clipPath><clipPath id="28b7d393eb"><path d="M 1.371094 66.304688 L 374.871094 66.304688 L 374.871094 308.554688 L 1.371094 308.554688 Z M 1.371094 66.304688 " clip-rule="nonzero"/></clipPath><mask id="891e4a8bcd"><g filter="url(#8f24365e6d)"><rect x="-37.5" width="450" fill="#000000" y="-37.499999" height="449.999989" fill-opacity="0.96"/></g></mask><clipPath id="cce87a5726"><path d="M 91 0.160156 L 143 0.160156 L 143 61 L 91 61 Z M 91 0.160156 " clip-rule="nonzero"/></clipPath><clipPath id="3d4a1d7aa6"><path d="M 0.0390625 71 L 15 71 L 15 88 L 0.0390625 88 Z M 0.0390625 71 " clip-rule="nonzero"/></clipPath><clipPath id="94423efbc4"><path d="M 217 71 L 234.519531 71 L 234.519531 88 L 217 88 Z M 217 71 " clip-rule="nonzero"/></clipPath><clipPath id="596b4d79df"><rect x="0" width="235" y="0" height="89"/></clipPath><mask id="d177436a61"><g filter="url(#8f24365e6d)"><rect x="-37.5" width="450" fill="#000000" y="-37.499999" height="449.999989" fill-opacity="0.29"/></g></mask><clipPath id="3d8a9ae0b4"><rect x="0" width="50" y="0" height="42"/></clipPath><mask id="30f88238da"><g filter="url(#8f24365e6d)"><rect x="-37.5" width="450" fill="#000000" y="-37.499999" height="449.999989" fill-opacity="0.24"/></g></mask><clipPath id="1902efc981"><rect x="0" width="34" y="0" height="32"/></clipPath><clipPath id="e6794b09f6"><path d="M 135.449219 249.59375 L 159.679688 249.59375 L 159.679688 273.824219 L 135.449219 273.824219 Z M 135.449219 249.59375 " clip-rule="nonzero"/></clipPath><clipPath id="114bd3b3be"><path d="M 147.566406 249.59375 C 140.875 249.59375 135.449219 255.019531 135.449219 261.707031 C 135.449219 268.398438 140.875 273.824219 147.566406 273.824219 C 154.253906 273.824219 159.679688 268.398438 159.679688 261.707031 C 159.679688 255.019531 154.253906 249.59375 147.566406 249.59375 Z M 147.566406 249.59375 " clip-rule="nonzero"/></clipPath><clipPath id="ba6518cb74"><path d="M 0.449219 0.59375 L 24.679688 0.59375 L 24.679688 24.824219 L 0.449219 24.824219 Z M 0.449219 0.59375 " clip-rule="nonzero"/></clipPath><clipPath id="c6abba4fec"><path d="M 12.566406 0.59375 C 5.875 0.59375 0.449219 6.019531 0.449219 12.707031 C 0.449219 19.398438 5.875 24.824219 12.566406 24.824219 C 19.253906 24.824219 24.679688 19.398438 24.679688 12.707031 C 24.679688 6.019531 19.253906 0.59375 12.566406 0.59375 Z M 12.566406 0.59375 " clip-rule="nonzero"/></clipPath><clipPath id="d618e4263c"><rect x="0" width="25" y="0" height="25"/></clipPath></defs><g clip-path="url(#85712e9c8e)"><path fill="#2f8ef4" d="M 374.859375 187.417969 L 374.859375 308.34375 L 137.121094 308.34375 C 70.273438 308.34375 16.074219 254.167969 16.074219 187.328125 C 16.074219 185.398438 16.121094 183.46875 16.214844 181.539062 C 16.304688 179.609375 16.445312 177.683594 16.628906 175.757812 C 16.8125 173.835938 17.042969 171.917969 17.320312 170.007812 C 17.597656 168.09375 17.921875 166.191406 18.289062 164.292969 C 18.65625 162.398438 19.070312 160.511719 19.527344 158.636719 C 19.984375 156.757812 20.488281 154.894531 21.035156 153.039062 C 21.582031 151.1875 22.175781 149.351562 22.808594 147.527344 C 23.445312 145.703125 24.125 143.894531 24.847656 142.101562 C 25.570312 140.308594 26.332031 138.535156 27.140625 136.78125 C 27.949219 135.027344 28.796875 133.292969 29.6875 131.578125 C 30.578125 129.863281 31.507812 128.167969 32.480469 126.5 C 33.449219 124.828125 34.460938 123.183594 35.511719 121.5625 C 36.5625 119.941406 37.648438 118.34375 38.777344 116.777344 C 39.902344 115.207031 41.066406 113.664062 42.265625 112.152344 C 43.464844 110.636719 44.703125 109.152344 45.972656 107.699219 C 47.246094 106.242188 48.550781 104.820312 49.890625 103.429688 C 51.230469 102.035156 52.601562 100.675781 54.007812 99.351562 C 55.410156 98.023438 56.847656 96.730469 58.3125 95.472656 C 59.78125 94.214844 61.277344 92.996094 62.800781 91.808594 C 64.328125 90.621094 65.878906 89.472656 67.460938 88.363281 C 69.039062 87.25 70.648438 86.175781 72.277344 85.140625 C 73.910156 84.109375 75.566406 83.113281 77.246094 82.15625 C 78.925781 81.199219 80.625 80.285156 82.347656 79.414062 C 84.070312 78.539062 85.816406 77.707031 87.578125 76.914062 C 89.339844 76.125 91.121094 75.375 92.921875 74.671875 C 94.71875 73.964844 96.535156 73.304688 98.363281 72.683594 C 100.195312 72.066406 102.039062 71.492188 103.898438 70.960938 C 105.753906 70.433594 107.625 69.945312 109.507812 69.503906 C 111.386719 69.066406 113.277344 68.667969 115.179688 68.320312 C 117.078125 67.96875 118.988281 67.664062 120.902344 67.40625 C 122.816406 67.148438 124.738281 66.933594 126.660156 66.765625 C 128.585938 66.601562 130.515625 66.480469 132.445312 66.40625 L 253.832031 66.40625 C 320.679688 66.40625 374.859375 120.582031 374.859375 187.417969 Z M 374.859375 187.417969 " fill-opacity="1" fill-rule="nonzero"/></g><g clip-path="url(#28b7d393eb)"><path fill="#223040" d="M 374.859375 308.34375 L 374.859375 308.433594 L 122.417969 308.433594 C 55.5625 308.433594 1.371094 254.257812 1.371094 187.417969 C 1.371094 185.4375 1.417969 183.457031 1.515625 181.480469 C 1.613281 179.503906 1.757812 177.527344 1.953125 175.554688 C 2.148438 173.585938 2.390625 171.621094 2.679688 169.660156 C 2.96875 167.703125 3.308594 165.75 3.695312 163.808594 C 4.082031 161.867188 4.515625 159.933594 4.996094 158.011719 C 5.476562 156.089844 6.003906 154.183594 6.578125 152.289062 C 7.152344 150.390625 7.773438 148.511719 8.441406 146.648438 C 9.109375 144.78125 9.820312 142.933594 10.582031 141.105469 C 11.339844 139.277344 12.140625 137.464844 12.988281 135.675781 C 13.835938 133.882812 14.726562 132.117188 15.660156 130.367188 C 16.59375 128.621094 17.566406 126.898438 18.585938 125.199219 C 19.605469 123.5 20.664062 121.828125 21.765625 120.183594 C 22.867188 118.535156 24.007812 116.917969 25.1875 115.324219 C 26.367188 113.734375 27.585938 112.171875 28.839844 110.640625 C 30.097656 109.113281 31.390625 107.613281 32.722656 106.144531 C 34.050781 104.675781 35.417969 103.242188 36.820312 101.84375 C 38.21875 100.441406 39.65625 99.078125 41.121094 97.746094 C 42.589844 96.417969 44.089844 95.125 45.621094 93.867188 C 47.152344 92.609375 48.714844 91.394531 50.304688 90.210938 C 51.898438 89.03125 53.515625 87.894531 55.164062 86.792969 C 56.808594 85.691406 58.484375 84.632812 60.183594 83.613281 C 61.882812 82.597656 63.605469 81.621094 65.351562 80.6875 C 67.101562 79.753906 68.871094 78.863281 70.660156 78.015625 C 72.453125 77.171875 74.261719 76.367188 76.09375 75.609375 C 77.921875 74.851562 79.769531 74.140625 81.636719 73.472656 C 83.5 72.804688 85.382812 72.183594 87.277344 71.609375 C 89.171875 71.035156 91.082031 70.507812 93.003906 70.027344 C 94.925781 69.546875 96.859375 69.113281 98.800781 68.726562 C 100.746094 68.339844 102.695312 68.003906 104.65625 67.710938 C 106.617188 67.421875 108.582031 67.179688 110.550781 66.984375 C 112.523438 66.792969 114.5 66.644531 116.476562 66.550781 C 118.457031 66.453125 120.4375 66.40625 122.417969 66.40625 L 132.445312 66.40625 C 130.515625 66.480469 128.585938 66.601562 126.660156 66.765625 C 124.738281 66.933594 122.816406 67.148438 120.902344 67.40625 C 118.988281 67.664062 117.078125 67.96875 115.179688 68.320312 C 113.277344 68.667969 111.386719 69.066406 109.507812 69.503906 C 107.625 69.945312 105.753906 70.429688 103.898438 70.960938 C 102.039062 71.492188 100.195312 72.066406 98.363281 72.683594 C 96.535156 73.304688 94.71875 73.964844 92.921875 74.671875 C 91.121094 75.375 89.339844 76.125 87.578125 76.914062 C 85.816406 77.707031 84.070312 78.539062 82.347656 79.410156 C 80.625 80.285156 78.925781 81.199219 77.246094 82.15625 C 75.566406 83.113281 73.910156 84.105469 72.277344 85.140625 C 70.648438 86.175781 69.042969 87.25 67.460938 88.363281 C 65.878906 89.472656 64.328125 90.621094 62.804688 91.808594 C 61.277344 92.996094 59.78125 94.214844 58.316406 95.472656 C 56.847656 96.730469 55.414062 98.023438 54.007812 99.351562 C 52.601562 100.675781 51.230469 102.035156 49.890625 103.425781 C 48.550781 104.820312 47.246094 106.242188 45.972656 107.699219 C 44.703125 109.152344 43.46875 110.636719 42.265625 112.148438 C 41.066406 113.664062 39.902344 115.207031 38.777344 116.773438 C 37.648438 118.34375 36.5625 119.941406 35.511719 121.5625 C 34.460938 123.183594 33.449219 124.828125 32.480469 126.5 C 31.507812 128.167969 30.578125 129.863281 29.6875 131.574219 C 28.796875 133.289062 27.949219 135.023438 27.140625 136.78125 C 26.332031 138.535156 25.570312 140.308594 24.847656 142.101562 C 24.125 143.894531 23.445312 145.699219 22.808594 147.523438 C 22.175781 149.347656 21.582031 151.1875 21.035156 153.039062 C 20.488281 154.894531 19.984375 156.757812 19.527344 158.632812 C 19.070312 160.511719 18.65625 162.398438 18.289062 164.292969 C 17.921875 166.191406 17.597656 168.09375 17.320312 170.007812 C 17.046875 171.917969 16.8125 173.835938 16.628906 175.757812 C 16.445312 177.683594 16.304688 179.609375 16.214844 181.539062 C 16.121094 183.46875 16.074219 185.398438 16.074219 187.328125 C 16.074219 254.160156 70.265625 308.34375 137.121094 308.34375 Z M 374.859375 308.34375 " fill-opacity="0.16" fill-rule="nonzero"/></g><g mask="url(#891e4a8bcd)"><g transform="matrix(1, 0, 0, 1, 71, 140)"><g clip-path="url(#596b4d79df)"><path fill="#ffffff" d="M 84.386719 47.957031 L 75.878906 47.957031 L 75.878906 58.910156 L 60.089844 58.910156 L 60.089844 47.957031 L 29.824219 47.957031 L 29.824219 37.40625 L 55.511719 1.667969 L 72.28125 1.667969 L 48.964844 35.117188 L 60.582031 35.117188 L 60.582031 25.382812 L 75.871094 25.382812 L 75.871094 35.117188 L 84.378906 35.117188 Z M 84.386719 47.957031 " fill-opacity="1" fill-rule="nonzero"/><g clip-path="url(#cce87a5726)"><path fill="#ffffff" d="M 103.773438 56.539062 C 99.953125 54.199219 96.96875 50.777344 94.816406 46.277344 C 92.664062 41.777344 91.585938 36.445312 91.585938 30.28125 C 91.585938 24.117188 92.660156 18.785156 94.816406 14.285156 C 96.972656 9.78125 99.957031 6.359375 103.773438 4.019531 C 107.585938 1.675781 111.949219 0.5 116.863281 0.5 C 121.714844 0.5 126.050781 1.675781 129.871094 4.019531 C 133.6875 6.367188 136.675781 9.789062 138.828125 14.285156 C 140.980469 18.785156 142.058594 24.117188 142.054688 30.28125 C 142.050781 36.441406 140.976562 41.773438 138.828125 46.277344 C 136.671875 50.78125 133.6875 54.203125 129.871094 56.539062 C 126.050781 58.878906 121.71875 60.054688 116.863281 60.066406 C 111.957031 60.066406 107.59375 58.890625 103.773438 56.539062 Z M 123.367188 42.84375 C 124.972656 40.199219 125.777344 36.015625 125.78125 30.292969 C 125.78125 24.566406 124.976562 20.382812 123.367188 17.734375 C 121.757812 15.089844 119.589844 13.769531 116.863281 13.769531 C 114.082031 13.769531 111.886719 15.089844 110.277344 17.734375 C 108.667969 20.378906 107.863281 24.566406 107.863281 30.292969 C 107.863281 36.015625 108.667969 40.199219 110.277344 42.84375 C 111.886719 45.488281 114.082031 46.8125 116.863281 46.8125 C 119.59375 46.8125 121.761719 45.488281 123.367188 42.84375 Z M 123.367188 42.84375 " fill-opacity="1" fill-rule="nonzero"/></g><path fill="#ffffff" d="M 205.535156 47.957031 L 197.027344 47.957031 L 197.027344 58.910156 L 181.238281 58.910156 L 181.238281 47.957031 L 150.972656 47.957031 L 150.972656 37.40625 L 176.660156 1.667969 L 193.429688 1.667969 L 170.113281 35.117188 L 181.730469 35.117188 L 181.730469 25.382812 L 197.019531 25.382812 L 197.019531 35.117188 L 205.53125 35.117188 Z M 205.535156 47.957031 " fill-opacity="1" fill-rule="nonzero"/><g clip-path="url(#3d4a1d7aa6)"><path fill="#ffffff" d="M 11.285156 72.273438 C 11.792969 72.496094 12.257812 72.785156 12.683594 73.140625 C 13.105469 73.496094 13.46875 73.90625 13.773438 74.371094 C 14.078125 74.835938 14.308594 75.332031 14.46875 75.863281 C 14.625 76.394531 14.707031 76.9375 14.707031 77.492188 C 14.707031 78.046875 14.625 78.585938 14.46875 79.117188 C 14.308594 79.648438 14.078125 80.148438 13.773438 80.609375 C 13.46875 81.074219 13.105469 81.484375 12.683594 81.839844 C 12.257812 82.199219 11.792969 82.488281 11.285156 82.707031 C 10.070312 83.21875 8.804688 83.453125 7.488281 83.417969 L 4.6875 83.417969 L 4.6875 87.625 L 0.136719 87.625 L 0.136719 71.550781 L 7.488281 71.550781 C 8.804688 71.523438 10.070312 71.761719 11.285156 72.273438 Z M 9.328125 79.238281 C 9.84375 78.773438 10.082031 78.195312 10.039062 77.503906 C 10.082031 76.808594 9.84375 76.226562 9.328125 75.757812 C 8.855469 75.34375 8.148438 75.136719 7.214844 75.136719 L 4.6875 75.136719 L 4.6875 79.847656 L 7.214844 79.847656 C 8.148438 79.847656 8.855469 79.644531 9.328125 79.238281 Z M 9.328125 79.238281 " fill-opacity="1" fill-rule="nonzero"/></g><path fill="#ffffff" d="M 27.925781 84.511719 L 21.121094 84.511719 L 19.855469 87.636719 L 15.210938 87.636719 L 22.324219 71.550781 L 26.804688 71.550781 L 33.917969 87.636719 L 29.191406 87.636719 Z M 26.589844 81.15625 L 24.523438 76.011719 L 22.464844 81.15625 Z M 26.589844 81.15625 " fill-opacity="1" fill-rule="nonzero"/><path fill="#ffffff" d="M 46.867188 79.261719 L 50.886719 79.261719 L 50.886719 85.929688 C 49.914062 86.609375 48.855469 87.113281 47.710938 87.4375 C 46.542969 87.789062 45.347656 87.964844 44.125 87.964844 C 42.519531 87.992188 41 87.636719 39.574219 86.898438 C 38.238281 86.203125 37.179688 85.210938 36.402344 83.921875 C 36.027344 83.265625 35.738281 82.570312 35.546875 81.835938 C 35.351562 81.105469 35.253906 80.359375 35.253906 79.601562 C 35.253906 78.84375 35.351562 78.097656 35.546875 77.367188 C 35.738281 76.632812 36.027344 75.9375 36.402344 75.28125 C 37.183594 73.984375 38.25 72.992188 39.601562 72.304688 C 41.054688 71.566406 42.59375 71.210938 44.222656 71.238281 C 45.625 71.214844 46.972656 71.46875 48.269531 72 C 49.445312 72.484375 50.441406 73.210938 51.257812 74.183594 L 48.363281 76.804688 C 47.875 76.230469 47.289062 75.785156 46.605469 75.472656 C 45.921875 75.160156 45.203125 75.003906 44.453125 75.007812 C 44.144531 74.988281 43.839844 75 43.535156 75.046875 C 43.230469 75.09375 42.9375 75.171875 42.648438 75.277344 C 42.359375 75.386719 42.085938 75.527344 41.828125 75.691406 C 41.570312 75.859375 41.332031 76.050781 41.117188 76.269531 C 40.898438 76.484375 40.707031 76.722656 40.539062 76.980469 C 40.371094 77.238281 40.234375 77.511719 40.125 77.800781 C 40.015625 78.089844 39.941406 78.382812 39.894531 78.6875 C 39.847656 78.992188 39.835938 79.296875 39.855469 79.605469 C 39.839844 80.445312 40.03125 81.238281 40.429688 81.980469 C 40.808594 82.683594 41.34375 83.226562 42.039062 83.613281 C 42.773438 84.019531 43.5625 84.214844 44.40625 84.199219 C 45.265625 84.207031 46.085938 84.03125 46.867188 83.671875 Z M 46.867188 79.261719 " fill-opacity="1" fill-rule="nonzero"/><path fill="#ffffff" d="M 67.804688 84.121094 L 67.804688 87.636719 L 54.886719 87.636719 L 54.886719 71.550781 L 67.507812 71.550781 L 67.507812 75.066406 L 59.394531 75.066406 L 59.394531 77.78125 L 66.558594 77.78125 L 66.558594 81.179688 L 59.410156 81.179688 L 59.410156 84.121094 Z M 67.804688 84.121094 " fill-opacity="1" fill-rule="nonzero"/><path fill="#ffffff" d="M 94.535156 71.550781 L 94.535156 87.636719 L 90.792969 87.636719 L 83.679688 79.066406 L 83.679688 87.636719 L 79.226562 87.636719 L 79.226562 71.550781 L 82.976562 71.550781 L 90.085938 80.125 L 90.085938 71.550781 Z M 94.535156 71.550781 " fill-opacity="1" fill-rule="nonzero"/><path fill="#ffffff" d="M 102.386719 86.878906 C 101.722656 86.53125 101.113281 86.097656 100.566406 85.585938 C 100.019531 85.070312 99.550781 84.492188 99.160156 83.851562 C 98.773438 83.207031 98.476562 82.523438 98.273438 81.800781 C 98.070312 81.078125 97.972656 80.339844 97.972656 79.589844 C 97.972656 78.839844 98.070312 78.101562 98.273438 77.378906 C 98.476562 76.65625 98.773438 75.972656 99.160156 75.328125 C 99.550781 74.6875 100.019531 74.109375 100.566406 73.59375 C 101.113281 73.082031 101.722656 72.648438 102.386719 72.300781 C 103.097656 71.945312 103.84375 71.679688 104.617188 71.496094 C 105.390625 71.3125 106.175781 71.222656 106.972656 71.222656 C 107.765625 71.222656 108.550781 71.3125 109.328125 71.496094 C 110.101562 71.679688 110.84375 71.945312 111.558594 72.300781 C 112.222656 72.648438 112.828125 73.082031 113.378906 73.59375 C 113.925781 74.109375 114.394531 74.6875 114.78125 75.328125 C 115.171875 75.972656 115.46875 76.65625 115.667969 77.378906 C 115.871094 78.101562 115.972656 78.839844 115.972656 79.589844 C 115.972656 80.339844 115.871094 81.078125 115.667969 81.800781 C 115.46875 82.523438 115.171875 83.207031 114.78125 83.851562 C 114.394531 84.492188 113.925781 85.070312 113.378906 85.585938 C 112.828125 86.097656 112.222656 86.53125 111.558594 86.878906 C 110.84375 87.234375 110.101562 87.5 109.328125 87.683594 C 108.550781 87.867188 107.765625 87.957031 106.972656 87.957031 C 106.175781 87.957031 105.390625 87.867188 104.617188 87.683594 C 103.84375 87.5 103.097656 87.234375 102.386719 86.878906 Z M 109.179688 83.613281 C 109.851562 83.222656 110.375 82.683594 110.742188 81.996094 C 111.125 81.242188 111.3125 80.441406 111.3125 79.59375 C 111.3125 78.75 111.125 77.949219 110.742188 77.195312 C 110.375 76.507812 109.851562 75.964844 109.179688 75.574219 C 108.492188 75.1875 107.757812 74.996094 106.972656 74.996094 C 106.1875 74.996094 105.449219 75.1875 104.765625 75.574219 C 104.09375 75.964844 103.570312 76.507812 103.199219 77.195312 C 102.820312 77.949219 102.628906 78.75 102.628906 79.59375 C 102.628906 80.441406 102.820312 81.242188 103.199219 81.996094 C 103.570312 82.683594 104.089844 83.222656 104.765625 83.613281 C 105.449219 84 106.1875 84.191406 106.972656 84.191406 C 107.757812 84.191406 108.492188 84 109.179688 83.613281 Z M 109.179688 83.613281 " fill-opacity="1" fill-rule="nonzero"/><path fill="#ffffff" d="M 122.601562 75.160156 L 117.664062 75.160156 L 117.664062 71.550781 L 132.074219 71.550781 L 132.074219 75.160156 L 127.152344 75.160156 L 127.152344 87.636719 L 122.601562 87.636719 Z M 122.601562 75.160156 " fill-opacity="1" fill-rule="nonzero"/><path fill="#ffffff" d="M 147.21875 75.066406 L 147.21875 78.605469 L 154.328125 78.605469 L 154.328125 82.105469 L 147.21875 82.105469 L 147.21875 87.625 L 142.671875 87.625 L 142.671875 71.550781 L 155.285156 71.550781 L 155.285156 75.066406 Z M 147.21875 75.066406 " fill-opacity="1" fill-rule="nonzero"/><path fill="#ffffff" d="M 161.917969 86.878906 C 161.253906 86.527344 160.644531 86.097656 160.097656 85.582031 C 159.550781 85.070312 159.082031 84.492188 158.695312 83.847656 C 158.304688 83.207031 158.011719 82.523438 157.808594 81.800781 C 157.605469 81.078125 157.507812 80.339844 157.507812 79.589844 C 157.507812 78.839844 157.605469 78.101562 157.808594 77.378906 C 158.011719 76.65625 158.304688 75.972656 158.695312 75.332031 C 159.082031 74.6875 159.550781 74.109375 160.097656 73.597656 C 160.644531 73.082031 161.253906 72.652344 161.917969 72.300781 C 162.628906 71.945312 163.375 71.679688 164.148438 71.496094 C 164.921875 71.3125 165.707031 71.222656 166.503906 71.222656 C 167.300781 71.222656 168.085938 71.3125 168.859375 71.496094 C 169.636719 71.679688 170.378906 71.945312 171.089844 72.300781 C 171.757812 72.652344 172.363281 73.082031 172.910156 73.597656 C 173.457031 74.109375 173.925781 74.6875 174.3125 75.332031 C 174.703125 75.972656 175 76.65625 175.199219 77.378906 C 175.402344 78.101562 175.503906 78.839844 175.503906 79.589844 C 175.503906 80.339844 175.402344 81.078125 175.199219 81.800781 C 175 82.523438 174.703125 83.207031 174.3125 83.847656 C 173.925781 84.492188 173.457031 85.070312 172.910156 85.582031 C 172.363281 86.097656 171.757812 86.527344 171.089844 86.878906 C 170.378906 87.234375 169.636719 87.5 168.859375 87.683594 C 168.085938 87.867188 167.300781 87.957031 166.503906 87.957031 C 165.707031 87.957031 164.921875 87.867188 164.148438 87.683594 C 163.375 87.5 162.628906 87.234375 161.917969 86.878906 Z M 168.710938 83.613281 C 169.386719 83.222656 169.90625 82.683594 170.273438 81.996094 C 170.65625 81.242188 170.851562 80.441406 170.851562 79.59375 C 170.851562 78.75 170.65625 77.949219 170.273438 77.195312 C 169.90625 76.507812 169.386719 75.96875 168.710938 75.574219 C 168.027344 75.1875 167.289062 74.996094 166.503906 74.996094 C 165.71875 74.996094 164.980469 75.1875 164.296875 75.574219 C 163.621094 75.964844 163.101562 76.507812 162.734375 77.195312 C 162.351562 77.949219 162.160156 78.75 162.160156 79.59375 C 162.160156 80.441406 162.351562 81.242188 162.734375 81.996094 C 163.101562 82.683594 163.621094 83.222656 164.296875 83.613281 C 164.980469 84 165.71875 84.191406 166.503906 84.191406 C 167.289062 84.191406 168.027344 84 168.710938 83.613281 Z M 168.710938 83.613281 " fill-opacity="1" fill-rule="nonzero"/><path fill="#ffffff" d="M 180.792969 86.015625 C 179.464844 84.714844 178.800781 82.871094 178.800781 80.480469 L 178.800781 71.550781 L 183.351562 71.550781 L 183.351562 80.328125 C 183.351562 82.902344 184.371094 84.191406 186.410156 84.191406 C 188.449219 84.191406 189.460938 82.902344 189.441406 80.328125 L 189.441406 71.550781 L 193.925781 71.550781 L 193.925781 80.46875 C 193.925781 82.855469 193.265625 84.703125 191.9375 86.007812 C 190.613281 87.308594 188.753906 87.960938 186.363281 87.957031 C 183.972656 87.957031 182.117188 87.3125 180.792969 86.015625 Z M 180.792969 86.015625 " fill-opacity="1" fill-rule="nonzero"/><path fill="#ffffff" d="M 213.414062 71.550781 L 213.414062 87.636719 L 209.671875 87.636719 L 202.558594 79.066406 L 202.558594 87.636719 L 198.121094 87.636719 L 198.121094 71.550781 L 201.855469 71.550781 L 208.96875 80.125 L 208.96875 71.550781 Z M 213.414062 71.550781 " fill-opacity="1" fill-rule="nonzero"/><g clip-path="url(#94423efbc4)"><path fill="#ffffff" d="M 217.738281 71.550781 L 225.347656 71.550781 C 226.984375 71.523438 228.546875 71.851562 230.035156 72.539062 C 231.371094 73.160156 232.429688 74.09375 233.207031 75.34375 C 233.578125 75.988281 233.855469 76.671875 234.046875 77.394531 C 234.238281 78.113281 234.335938 78.847656 234.335938 79.59375 C 234.335938 80.339844 234.238281 81.070312 234.046875 81.792969 C 233.855469 82.511719 233.578125 83.199219 233.207031 83.84375 C 232.429688 85.09375 231.371094 86.03125 230.035156 86.648438 C 228.546875 87.339844 226.984375 87.667969 225.347656 87.636719 L 217.738281 87.636719 Z M 225.164062 83.996094 C 226.429688 84.054688 227.535156 83.664062 228.484375 82.824219 C 229.320312 82.042969 229.738281 80.960938 229.738281 79.582031 C 229.738281 78.203125 229.320312 77.125 228.484375 76.34375 C 227.539062 75.5 226.429688 75.109375 225.164062 75.171875 L 222.300781 75.171875 L 222.300781 83.996094 Z M 225.164062 83.996094 " fill-opacity="1" fill-rule="nonzero"/></g></g></g></g><g mask="url(#d177436a61)"><g transform="matrix(1, 0, 0, 1, 266, 87)"><g clip-path="url(#3d8a9ae0b4)"><path fill="#ffffff" d="M 29.351562 6.007812 C 30.003906 6.1875 30.652344 6.390625 31.289062 6.617188 C 31.925781 6.84375 32.554688 7.09375 33.167969 7.363281 C 33.785156 7.632812 34.386719 7.925781 34.972656 8.238281 C 35.5625 8.546875 36.132812 8.878906 36.683594 9.230469 C 37.238281 9.578125 37.773438 9.949219 38.289062 10.332031 C 38.800781 10.71875 39.292969 11.117188 39.765625 11.535156 C 40.234375 11.953125 40.679688 12.382812 41.101562 12.824219 C 41.523438 13.269531 41.917969 13.722656 42.289062 14.191406 C 42.65625 14.65625 43 15.132812 43.3125 15.617188 C 43.625 16.101562 43.90625 16.59375 44.160156 17.09375 C 44.414062 17.59375 44.636719 18.097656 44.828125 18.605469 C 45.019531 19.113281 45.179688 19.621094 45.308594 20.136719 C 45.433594 20.648438 45.53125 21.160156 45.59375 21.667969 C 45.65625 22.179688 45.6875 22.691406 45.683594 23.195312 C 45.683594 23.699219 45.648438 24.199219 45.582031 24.695312 C 45.511719 25.191406 45.414062 25.679688 45.28125 26.15625 C 45.148438 26.636719 44.984375 27.105469 44.789062 27.566406 C 44.59375 28.027344 44.367188 28.472656 44.109375 28.910156 C 43.851562 29.34375 43.566406 29.765625 43.25 30.171875 C 42.933594 30.578125 42.585938 30.96875 42.214844 31.34375 C 41.84375 31.714844 41.445312 32.070312 41.019531 32.410156 C 40.59375 32.75 40.144531 33.066406 39.671875 33.363281 C 39.199219 33.664062 38.703125 33.941406 38.183594 34.195312 C 37.667969 34.453125 37.132812 34.6875 36.574219 34.898438 C 36.019531 35.109375 35.445312 35.296875 34.855469 35.464844 C 34.265625 35.628906 33.664062 35.769531 33.046875 35.886719 C 32.429688 36.003906 31.800781 36.09375 31.160156 36.160156 C 30.523438 36.226562 29.875 36.269531 29.21875 36.285156 C 28.566406 36.304688 27.90625 36.296875 27.242188 36.261719 C 26.578125 36.230469 25.910156 36.171875 25.246094 36.085938 C 24.578125 36.003906 23.910156 35.894531 23.246094 35.761719 C 22.582031 35.628906 21.925781 35.472656 21.269531 35.292969 C 20.617188 35.113281 19.96875 34.910156 19.332031 34.683594 C 18.695312 34.457031 18.066406 34.207031 17.453125 33.9375 C 16.835938 33.667969 16.234375 33.375 15.648438 33.066406 C 15.058594 32.753906 14.488281 32.421875 13.9375 32.070312 C 13.382812 31.722656 12.847656 31.355469 12.332031 30.96875 C 11.820312 30.582031 11.328125 30.183594 10.855469 29.765625 C 10.386719 29.351562 9.941406 28.921875 9.519531 28.476562 C 9.097656 28.03125 8.703125 27.578125 8.332031 27.109375 C 7.964844 26.644531 7.625 26.167969 7.308594 25.683594 C 6.996094 25.199219 6.714844 24.707031 6.460938 24.207031 C 6.207031 23.707031 5.984375 23.203125 5.792969 22.695312 C 5.601562 22.1875 5.441406 21.679688 5.3125 21.167969 C 5.1875 20.65625 5.089844 20.144531 5.027344 19.632812 C 4.964844 19.121094 4.933594 18.613281 4.9375 18.105469 C 4.9375 17.601562 4.972656 17.101562 5.039062 16.605469 C 5.109375 16.109375 5.207031 15.625 5.339844 15.144531 C 5.472656 14.664062 5.636719 14.195312 5.832031 13.734375 C 6.027344 13.277344 6.253906 12.828125 6.511719 12.394531 C 6.769531 11.957031 7.054688 11.539062 7.371094 11.128906 C 7.6875 10.722656 8.035156 10.332031 8.40625 9.960938 C 8.777344 9.585938 9.179688 9.230469 9.601562 8.890625 C 10.027344 8.554688 10.476562 8.234375 10.949219 7.9375 C 11.421875 7.636719 11.917969 7.359375 12.4375 7.105469 C 12.953125 6.847656 13.488281 6.613281 14.046875 6.402344 C 14.601562 6.191406 15.175781 6.003906 15.765625 5.839844 C 16.355469 5.671875 16.957031 5.53125 17.574219 5.417969 C 18.191406 5.300781 18.820312 5.207031 19.460938 5.140625 C 20.097656 5.074219 20.746094 5.03125 21.402344 5.015625 C 22.054688 5 22.714844 5.007812 23.378906 5.039062 C 24.042969 5.074219 24.710938 5.132812 25.375 5.214844 C 26.042969 5.296875 26.710938 5.40625 27.375 5.539062 C 28.039062 5.671875 28.695312 5.828125 29.351562 6.007812 Z M 29.351562 6.007812 " fill-opacity="1" fill-rule="nonzero"/></g></g></g><g mask="url(#30f88238da)"><g transform="matrix(1, 0, 0, 1, 310, 114)"><g clip-path="url(#1902efc981)"><path fill="#ffffff" d="M 22.59375 8.640625 C 23.257812 9.15625 23.882812 9.714844 24.460938 10.3125 C 25.039062 10.910156 25.566406 11.542969 26.035156 12.203125 C 26.503906 12.867188 26.914062 13.546875 27.257812 14.242188 C 27.601562 14.941406 27.875 15.644531 28.078125 16.355469 C 28.28125 17.0625 28.414062 17.761719 28.46875 18.453125 C 28.523438 19.144531 28.503906 19.816406 28.410156 20.460938 C 28.316406 21.109375 28.152344 21.722656 27.910156 22.300781 C 27.671875 22.882812 27.363281 23.414062 26.984375 23.902344 C 26.609375 24.390625 26.171875 24.824219 25.671875 25.203125 C 25.171875 25.582031 24.617188 25.898438 24.015625 26.152344 C 23.414062 26.40625 22.769531 26.59375 22.085938 26.710938 C 21.402344 26.832031 20.691406 26.882812 19.957031 26.867188 C 19.21875 26.847656 18.46875 26.757812 17.707031 26.601562 C 16.941406 26.445312 16.179688 26.226562 15.421875 25.9375 C 14.664062 25.648438 13.921875 25.300781 13.195312 24.890625 C 12.46875 24.480469 11.773438 24.019531 11.105469 23.507812 C 10.441406 22.992188 9.820312 22.4375 9.238281 21.835938 C 8.660156 21.238281 8.136719 20.605469 7.664062 19.945312 C 7.195312 19.285156 6.789062 18.601562 6.445312 17.90625 C 6.101562 17.207031 5.824219 16.503906 5.621094 15.792969 C 5.417969 15.085938 5.289062 14.386719 5.230469 13.695312 C 5.175781 13.003906 5.195312 12.332031 5.289062 11.6875 C 5.382812 11.039062 5.550781 10.425781 5.789062 9.847656 C 6.027344 9.265625 6.335938 8.734375 6.714844 8.246094 C 7.09375 7.757812 7.53125 7.324219 8.03125 6.945312 C 8.53125 6.566406 9.082031 6.25 9.683594 5.996094 C 10.289062 5.742188 10.929688 5.554688 11.613281 5.4375 C 12.296875 5.316406 13.007812 5.265625 13.746094 5.285156 C 14.480469 5.300781 15.230469 5.390625 15.996094 5.546875 C 16.757812 5.703125 17.519531 5.925781 18.277344 6.210938 C 19.039062 6.5 19.78125 6.847656 20.507812 7.257812 C 21.234375 7.667969 21.929688 8.128906 22.59375 8.640625 Z M 22.59375 8.640625 " fill-opacity="1" fill-rule="nonzero"/></g></g></g><g clip-path="url(#e6794b09f6)"><g clip-path="url(#114bd3b3be)"><g transform="matrix(1, 0, 0, 1, 135, 249)"><g clip-path="url(#d618e4263c)"><g clip-path="url(#ba6518cb74)"><g clip-path="url(#c6abba4fec)"><path fill="#2f8ef4" d="M 0.449219 0.59375 L 24.679688 0.59375 L 24.679688 24.824219 L 0.449219 24.824219 Z M 0.449219 0.59375 " fill-opacity="1" fill-rule="nonzero"/></g></g></g></g></g></g></svg>