<svg xmlns="http://www.w3.org/2000/svg" xmlns:xlink="http://www.w3.org/1999/xlink" width="300" zoomAndPan="magnify" viewBox="0 0 224.87999 74.999997" height="100" preserveAspectRatio="xMidYMid meet" version="1.0"><defs><g/><clipPath id="a7d36c2e01"><path d="M 0 0.0195312 L 74.960938 0.0195312 L 74.960938 74.980469 L 0 74.980469 Z M 0 0.0195312 " clip-rule="nonzero"/></clipPath><clipPath id="f4c8c84d9b"><path d="M 37.480469 0.0195312 C 16.78125 0.0195312 0 16.800781 0 37.5 C 0 58.199219 16.78125 74.980469 37.480469 74.980469 C 58.179688 74.980469 74.960938 58.199219 74.960938 37.5 C 74.960938 16.800781 58.179688 0.0195312 37.480469 0.0195312 Z M 37.480469 0.0195312 " clip-rule="nonzero"/></clipPath><clipPath id="3702714222"><path d="M 0 0.0195312 L 74.960938 0.0195312 L 74.960938 74.980469 L 0 74.980469 Z M 0 0.0195312 " clip-rule="nonzero"/></clipPath><clipPath id="1299ac0ec1"><path d="M 37.480469 0.0195312 C 16.78125 0.0195312 0 16.800781 0 37.5 C 0 58.199219 16.78125 74.980469 37.480469 74.980469 C 58.179688 74.980469 74.960938 58.199219 74.960938 37.5 C 74.960938 16.800781 58.179688 0.0195312 37.480469 0.0195312 Z M 37.480469 0.0195312 " clip-rule="nonzero"/></clipPath><clipPath id="14fa0fb632"><rect x="0" width="75" y="0" height="75"/></clipPath><clipPath id="6d3b78ce9d"><path d="M 0 0.0195312 L 74.960938 0.0195312 L 74.960938 74.980469 L 0 74.980469 Z M 0 0.0195312 " clip-rule="nonzero"/></clipPath></defs><g clip-path="url(#a7d36c2e01)"><g clip-path="url(#f4c8c84d9b)"><g transform="matrix(1, 0, 0, 1, 0, -0.000000000000000847)"><g clip-path="url(#14fa0fb632)"><g clip-path="url(#3702714222)"><g clip-path="url(#1299ac0ec1)"><path fill="#ffffff" d="M 0 0.0195312 L 74.960938 0.0195312 L 74.960938 74.980469 L 0 74.980469 Z M 0 0.0195312 " fill-opacity="1" fill-rule="nonzero"/></g></g></g></g></g></g><g clip-path="url(#6d3b78ce9d)"><path fill="#2f6dbf" d="M 37.46875 0.0117188 C 58.167969 0.0117188 74.945312 16.789062 74.945312 37.488281 C 74.945312 58.1875 58.167969 74.964844 37.46875 74.964844 C 16.769531 74.964844 -0.0117188 58.1875 -0.0117188 37.488281 C -0.0117188 16.789062 16.769531 0.0117188 37.46875 0.0117188 Z M 37.4375 16.101562 C 43.140625 16.101562 43.652344 24.210938 44.226562 26.675781 L 30.808594 26.675781 C 30.808594 21.980469 32.941406 16.101562 37.4375 16.101562 Z M 42.214844 38.53125 L 43.503906 37.316406 C 41.878906 35.410156 40.097656 34.664062 37.699219 34.664062 C 33.726562 34.664062 32.101562 36.929688 32.101562 39.332031 C 32.101562 45.394531 41.75 43.097656 41.75 48.179688 C 41.75 49.933594 40.277344 51.117188 37.597656 51.117188 C 35.378906 51.117188 33.828125 50.191406 32.644531 48.667969 L 31.277344 49.933594 C 32.980469 51.917969 35.015625 52.71875 37.546875 52.71875 C 41.027344 52.71875 43.65625 51.015625 43.65625 47.84375 C 43.65625 41.703125 34.011719 43.640625 34.011719 39.046875 C 34.011719 37.421875 35.171875 36.261719 37.75 36.261719 C 39.660156 36.261719 41.105469 37.058594 42.214844 38.53125 Z M 28.125 26.675781 L 18.339844 26.675781 C 16.601562 26.675781 15.925781 27.878906 16.152344 29.808594 C 16.332031 31.328125 16.472656 33.332031 16.59375 34.890625 L 17.078125 42.457031 C 17.113281 43.148438 17.203125 43.03125 17.234375 43.722656 L 18.023438 55.246094 C 18.042969 58.433594 19.785156 61.398438 22.917969 61.398438 L 51.800781 61.398438 C 57.4375 61.398438 56.867188 54.441406 57.300781 50.484375 L 58.75 29.828125 C 58.796875 28.945312 58.96875 28.511719 58.550781 27.660156 C 58.253906 27.058594 57.550781 26.675781 56.695312 26.675781 L 46.75 26.675781 C 46.75 21.3125 43.707031 13.574219 37.910156 13.574219 L 36.648438 13.574219 C 33.792969 13.574219 31.320312 16.074219 30.332031 17.992188 C 29 20.585938 28.125 23.511719 28.125 26.675781 Z M 28.125 26.675781 " fill-opacity="1" fill-rule="evenodd"/></g><g fill="#333333" fill-opacity="1"><g transform="translate(79.833462, 47.107341)"><g><path d="M 12.9375 -23.25 C 14.226562 -23.25 15.421875 -23.09375 16.515625 -22.78125 C 17.617188 -22.476562 18.734375 -21.988281 19.859375 -21.3125 L 20.65625 -21.984375 C 21.21875 -22.421875 21.675781 -22.71875 22.03125 -22.875 C 22.382812 -23.039062 22.789062 -23.125 23.25 -23.125 C 23.8125 -23.125 24.253906 -23 24.578125 -22.75 C 24.898438 -22.507812 25.0625 -22.160156 25.0625 -21.703125 C 25.0625 -21.515625 25.023438 -21.316406 24.953125 -21.109375 L 23.5 -16.328125 C 23.332031 -15.773438 23.128906 -15.382812 22.890625 -15.15625 C 22.648438 -14.925781 22.285156 -14.8125 21.796875 -14.8125 C 21.296875 -14.8125 20.851562 -14.96875 20.46875 -15.28125 C 20.09375 -15.59375 19.5 -16.234375 18.6875 -17.203125 C 17.882812 -18.117188 17.148438 -18.769531 16.484375 -19.15625 C 15.828125 -19.539062 15.15625 -19.734375 14.46875 -19.734375 C 13.957031 -19.734375 13.53125 -19.5625 13.1875 -19.21875 C 12.84375 -18.882812 12.671875 -18.476562 12.671875 -18 C 12.671875 -17.445312 12.945312 -16.929688 13.5 -16.453125 C 14.050781 -15.984375 14.914062 -15.390625 16.09375 -14.671875 C 17.289062 -13.953125 18.28125 -13.304688 19.0625 -12.734375 C 19.851562 -12.160156 20.523438 -11.445312 21.078125 -10.59375 C 21.628906 -9.738281 21.90625 -8.757812 21.90625 -7.65625 C 21.90625 -6.9375 21.789062 -6.21875 21.5625 -5.5 C 21.007812 -3.65625 19.9375 -2.253906 18.34375 -1.296875 C 16.75 -0.335938 14.890625 0.140625 12.765625 0.140625 C 11.171875 0.140625 9.832031 -0.0390625 8.75 -0.40625 C 7.664062 -0.78125 6.5625 -1.40625 5.4375 -2.28125 L 4.1875 -1.25 C 3.613281 -0.757812 3.140625 -0.425781 2.765625 -0.25 C 2.398438 -0.0820312 1.984375 0 1.515625 0 C 0.992188 0 0.578125 -0.125 0.265625 -0.375 C -0.046875 -0.632812 -0.203125 -0.984375 -0.203125 -1.421875 C -0.203125 -1.648438 -0.15625 -1.890625 -0.0625 -2.140625 L 1.625 -7.296875 C 1.8125 -7.898438 2.066406 -8.328125 2.390625 -8.578125 C 2.710938 -8.835938 3.128906 -8.96875 3.640625 -8.96875 C 4.171875 -8.96875 4.644531 -8.78125 5.0625 -8.40625 C 5.488281 -8.039062 6.050781 -7.375 6.75 -6.40625 C 7.488281 -5.34375 8.175781 -4.601562 8.8125 -4.1875 C 9.445312 -3.769531 10.203125 -3.5625 11.078125 -3.5625 C 11.703125 -3.5625 12.179688 -3.660156 12.515625 -3.859375 C 12.847656 -4.054688 13.082031 -4.375 13.21875 -4.8125 C 13.269531 -4.925781 13.296875 -5.097656 13.296875 -5.328125 C 13.296875 -5.878906 13.03125 -6.382812 12.5 -6.84375 C 11.96875 -7.3125 11.144531 -7.867188 10.03125 -8.515625 C 8.851562 -9.234375 7.894531 -9.875 7.15625 -10.4375 C 6.425781 -11 5.789062 -11.707031 5.25 -12.5625 C 4.707031 -13.414062 4.4375 -14.421875 4.4375 -15.578125 C 4.4375 -16.378906 4.5625 -17.175781 4.8125 -17.96875 C 5.289062 -19.550781 6.28125 -20.828125 7.78125 -21.796875 C 9.28125 -22.765625 11 -23.25 12.9375 -23.25 Z M 12.9375 -23.25 "/></g></g></g><g fill="#333333" fill-opacity="1"><g transform="translate(103.680065, 47.107341)"><g><path d="M 15.46875 -17.859375 C 15.90625 -17.859375 16.242188 -17.765625 16.484375 -17.578125 C 16.734375 -17.390625 16.859375 -17.132812 16.859375 -16.8125 C 16.859375 -16.726562 16.832031 -16.566406 16.78125 -16.328125 C 16.476562 -15.316406 15.785156 -14.8125 14.703125 -14.8125 L 12.703125 -14.8125 L 10.109375 -6.265625 C 9.992188 -5.921875 9.9375 -5.5625 9.9375 -5.1875 C 9.9375 -4.769531 10.050781 -4.476562 10.28125 -4.3125 C 10.507812 -4.15625 10.832031 -4.078125 11.25 -4.078125 C 11.613281 -4.078125 12.070312 -4.125 12.625 -4.21875 C 12.90625 -4.289062 13.148438 -4.328125 13.359375 -4.328125 C 13.515625 -4.328125 13.632812 -4.273438 13.71875 -4.171875 C 13.800781 -4.066406 13.84375 -3.929688 13.84375 -3.765625 C 13.863281 -3.304688 13.519531 -2.75 12.8125 -2.09375 C 12.113281 -1.4375 11.164062 -0.867188 9.96875 -0.390625 C 8.769531 0.078125 7.441406 0.3125 5.984375 0.3125 C 4.421875 0.3125 3.164062 -0.0390625 2.21875 -0.75 C 1.269531 -1.46875 0.796875 -2.453125 0.796875 -3.703125 C 0.796875 -4.273438 0.890625 -4.828125 1.078125 -5.359375 L 3.28125 -12.21875 C 3.394531 -12.613281 3.453125 -12.925781 3.453125 -13.15625 C 3.453125 -13.613281 3.34375 -14.003906 3.125 -14.328125 C 2.90625 -14.648438 2.601562 -14.984375 2.21875 -15.328125 C 1.875 -15.648438 1.628906 -15.921875 1.484375 -16.140625 C 1.347656 -16.359375 1.316406 -16.617188 1.390625 -16.921875 C 1.472656 -17.222656 1.664062 -17.453125 1.96875 -17.609375 C 2.269531 -17.773438 2.742188 -17.859375 3.390625 -17.859375 L 5.328125 -17.859375 L 7.515625 -20.03125 C 8.273438 -20.800781 8.972656 -21.332031 9.609375 -21.625 C 10.242188 -21.925781 11.066406 -22.078125 12.078125 -22.078125 C 13.535156 -22.078125 14.265625 -21.523438 14.265625 -20.421875 C 14.265625 -20.078125 14.21875 -19.753906 14.125 -19.453125 L 13.640625 -17.859375 Z M 15.46875 -17.859375 "/></g></g></g><g fill="#333333" fill-opacity="1"><g transform="translate(118.562556, 47.107341)"><g><path d="M 13.390625 -18.3125 C 16.523438 -18.3125 18.835938 -17.675781 20.328125 -16.40625 C 21.816406 -15.132812 22.5625 -13.472656 22.5625 -11.421875 C 22.5625 -10.722656 22.46875 -9.953125 22.28125 -9.109375 C 21.84375 -7.210938 21.023438 -5.550781 19.828125 -4.125 C 18.628906 -2.707031 17.160156 -1.613281 15.421875 -0.84375 C 13.679688 -0.0703125 11.796875 0.3125 9.765625 0.3125 C 6.554688 0.3125 4.179688 -0.328125 2.640625 -1.609375 C 1.109375 -2.890625 0.34375 -4.59375 0.34375 -6.71875 C 0.34375 -7.425781 0.4375 -8.222656 0.625 -9.109375 C 1.0625 -10.898438 1.894531 -12.492188 3.125 -13.890625 C 4.363281 -15.285156 5.875 -16.367188 7.65625 -17.140625 C 9.445312 -17.921875 11.359375 -18.3125 13.390625 -18.3125 Z M 13.296875 -15.234375 C 12.804688 -15.234375 12.289062 -14.796875 11.75 -13.921875 C 11.207031 -13.054688 10.566406 -11.425781 9.828125 -9.03125 C 9.085938 -6.632812 8.71875 -4.953125 8.71875 -3.984375 C 8.71875 -3.472656 8.796875 -3.128906 8.953125 -2.953125 C 9.117188 -2.785156 9.34375 -2.703125 9.625 -2.703125 C 10.101562 -2.648438 10.601562 -3.0625 11.125 -3.9375 C 11.644531 -4.820312 12.296875 -6.53125 13.078125 -9.0625 C 13.796875 -11.300781 14.15625 -12.929688 14.15625 -13.953125 C 14.15625 -14.429688 14.078125 -14.765625 13.921875 -14.953125 C 13.773438 -15.140625 13.566406 -15.234375 13.296875 -15.234375 Z M 13.296875 -15.234375 "/></g></g></g><g fill="#333333" fill-opacity="1"><g transform="translate(141.267018, 47.107341)"><g><path d="M 12.5625 -18.484375 C 13.96875 -18.484375 15.203125 -18.28125 16.265625 -17.875 C 17.328125 -17.46875 18.148438 -16.910156 18.734375 -16.203125 C 19.328125 -15.503906 19.625 -14.726562 19.625 -13.875 C 19.625 -12.957031 19.304688 -12.195312 18.671875 -11.59375 C 18.035156 -10.988281 17.175781 -10.6875 16.09375 -10.6875 C 14.988281 -10.6875 14.125 -10.96875 13.5 -11.53125 C 12.875 -12.101562 12.5625 -12.875 12.5625 -13.84375 C 12.5625 -14.300781 12.628906 -14.785156 12.765625 -15.296875 C 11.796875 -15.046875 10.9375 -14.546875 10.1875 -13.796875 C 9.4375 -13.046875 8.9375 -12.054688 8.6875 -10.828125 C 8.550781 -10.140625 8.484375 -9.519531 8.484375 -8.96875 C 8.484375 -7.71875 8.828125 -6.769531 9.515625 -6.125 C 10.210938 -5.476562 11.207031 -5.15625 12.5 -5.15625 C 13.226562 -5.15625 13.859375 -5.226562 14.390625 -5.375 C 14.921875 -5.53125 15.46875 -5.734375 16.03125 -5.984375 C 16.488281 -6.210938 16.820312 -6.328125 17.03125 -6.328125 C 17.164062 -6.328125 17.253906 -6.296875 17.296875 -6.234375 C 17.347656 -6.179688 17.375 -6.066406 17.375 -5.890625 C 17.394531 -5.035156 17.039062 -4.140625 16.3125 -3.203125 C 15.59375 -2.265625 14.59375 -1.476562 13.3125 -0.84375 C 12.03125 -0.207031 10.59375 0.109375 9 0.109375 C 7.332031 0.109375 5.859375 -0.195312 4.578125 -0.8125 C 3.304688 -1.425781 2.316406 -2.300781 1.609375 -3.4375 C 0.898438 -4.582031 0.546875 -5.914062 0.546875 -7.4375 C 0.546875 -8.15625 0.640625 -8.953125 0.828125 -9.828125 C 1.453125 -12.691406 2.832031 -14.847656 4.96875 -16.296875 C 7.101562 -17.753906 9.632812 -18.484375 12.5625 -18.484375 Z M 12.5625 -18.484375 "/></g></g></g><g fill="#333333" fill-opacity="1"><g transform="translate(160.025889, 47.107341)"><g><path d="M 20.515625 -18.3125 C 21.835938 -18.3125 22.894531 -17.945312 23.6875 -17.21875 C 24.488281 -16.488281 24.890625 -15.609375 24.890625 -14.578125 C 24.890625 -13.460938 24.550781 -12.59375 23.875 -11.96875 C 23.207031 -11.351562 22.332031 -11.046875 21.25 -11.046875 C 20.28125 -11.046875 19.53125 -11.289062 19 -11.78125 C 18.46875 -12.28125 18.210938 -12.84375 18.234375 -13.46875 C 18.003906 -13.507812 17.804688 -13.414062 17.640625 -13.1875 C 17.484375 -12.957031 17.3125 -12.507812 17.125 -11.84375 C 17.007812 -11.394531 16.789062 -10.988281 16.46875 -10.625 C 18.039062 -10.507812 19.207031 -10.148438 19.96875 -9.546875 C 20.726562 -8.953125 21.109375 -8.179688 21.109375 -7.234375 C 21.109375 -6.773438 21.03125 -6.3125 20.875 -5.84375 L 20.59375 -4.78125 C 20.539062 -4.664062 20.515625 -4.515625 20.515625 -4.328125 C 20.515625 -4.003906 20.664062 -3.84375 20.96875 -3.84375 C 21.25 -3.84375 21.488281 -3.960938 21.6875 -4.203125 C 21.882812 -4.441406 22.015625 -4.5625 22.078125 -4.5625 C 22.191406 -4.5625 22.285156 -4.488281 22.359375 -4.34375 C 22.429688 -4.195312 22.46875 -4.019531 22.46875 -3.8125 C 22.488281 -3.132812 22.285156 -2.476562 21.859375 -1.84375 C 21.429688 -1.21875 20.785156 -0.703125 19.921875 -0.296875 C 19.054688 0.109375 18.007812 0.3125 16.78125 0.3125 C 15.3125 0.3125 14.082031 -0.0546875 13.09375 -0.796875 C 12.113281 -1.535156 11.625 -2.503906 11.625 -3.703125 C 11.625 -4.140625 11.71875 -4.632812 11.90625 -5.1875 L 12.5625 -6.921875 C 12.675781 -7.335938 12.734375 -7.640625 12.734375 -7.828125 C 12.734375 -8.117188 12.632812 -8.332031 12.4375 -8.46875 C 12.238281 -8.613281 11.9375 -8.6875 11.53125 -8.6875 L 10.828125 -8.6875 L 9.28125 -3.59375 C 9.207031 -3.320312 9.171875 -3.082031 9.171875 -2.875 C 9.171875 -2.570312 9.226562 -2.332031 9.34375 -2.15625 C 9.457031 -1.988281 9.617188 -1.820312 9.828125 -1.65625 C 9.992188 -1.5 10.109375 -1.367188 10.171875 -1.265625 C 10.242188 -1.160156 10.253906 -1.023438 10.203125 -0.859375 C 10.085938 -0.566406 9.859375 -0.347656 9.515625 -0.203125 C 9.171875 -0.0664062 8.640625 0 7.921875 0 L 0.03125 0 C -0.5625 0 -1 -0.0976562 -1.28125 -0.296875 C -1.5625 -0.492188 -1.65625 -0.753906 -1.5625 -1.078125 C -1.46875 -1.347656 -1.222656 -1.585938 -0.828125 -1.796875 C -0.484375 -1.984375 -0.195312 -2.203125 0.03125 -2.453125 C 0.257812 -2.710938 0.457031 -3.117188 0.625 -3.671875 L 5.890625 -20.9375 C 5.953125 -21.144531 5.984375 -21.316406 5.984375 -21.453125 C 5.984375 -21.710938 5.921875 -21.921875 5.796875 -22.078125 C 5.671875 -22.242188 5.503906 -22.40625 5.296875 -22.5625 C 5.066406 -22.75 4.898438 -22.910156 4.796875 -23.046875 C 4.691406 -23.179688 4.671875 -23.367188 4.734375 -23.609375 C 4.878906 -24.140625 5.609375 -24.597656 6.921875 -24.984375 C 8.234375 -25.378906 9.609375 -25.578125 11.046875 -25.578125 C 12.378906 -25.578125 13.359375 -25.328125 13.984375 -24.828125 C 14.609375 -24.335938 14.921875 -23.648438 14.921875 -22.765625 C 14.921875 -22.242188 14.835938 -21.738281 14.671875 -21.25 L 11.65625 -11.421875 L 12.8125 -11.421875 C 13.269531 -11.421875 13.640625 -11.554688 13.921875 -11.828125 C 14.210938 -12.109375 14.441406 -12.515625 14.609375 -13.046875 C 15.179688 -14.753906 15.925781 -16.054688 16.84375 -16.953125 C 17.769531 -17.859375 18.992188 -18.3125 20.515625 -18.3125 Z M 20.515625 -18.3125 "/></g></g></g><g fill="#333333" fill-opacity="1"><g transform="translate(184.218594, 47.107341)"><g><path d="M 11.046875 -25.578125 C 12.378906 -25.578125 13.363281 -25.320312 14 -24.8125 C 14.632812 -24.300781 14.953125 -23.609375 14.953125 -22.734375 C 14.953125 -22.234375 14.867188 -21.738281 14.703125 -21.25 L 9.28125 -3.59375 C 9.207031 -3.320312 9.171875 -3.082031 9.171875 -2.875 C 9.171875 -2.570312 9.226562 -2.332031 9.34375 -2.15625 C 9.457031 -1.988281 9.617188 -1.820312 9.828125 -1.65625 C 9.992188 -1.5 10.109375 -1.367188 10.171875 -1.265625 C 10.242188 -1.160156 10.253906 -1.023438 10.203125 -0.859375 C 10.085938 -0.566406 9.859375 -0.347656 9.515625 -0.203125 C 9.171875 -0.0664062 8.640625 0 7.921875 0 L 0.03125 0 C -0.5625 0 -1 -0.0976562 -1.28125 -0.296875 C -1.5625 -0.492188 -1.65625 -0.753906 -1.5625 -1.078125 C -1.46875 -1.347656 -1.222656 -1.585938 -0.828125 -1.796875 C -0.484375 -1.984375 -0.195312 -2.203125 0.03125 -2.453125 C 0.257812 -2.710938 0.457031 -3.117188 0.625 -3.671875 L 5.890625 -20.9375 C 5.953125 -21.144531 5.984375 -21.316406 5.984375 -21.453125 C 5.984375 -21.710938 5.921875 -21.921875 5.796875 -22.078125 C 5.671875 -22.242188 5.503906 -22.40625 5.296875 -22.5625 C 5.066406 -22.75 4.898438 -22.910156 4.796875 -23.046875 C 4.691406 -23.179688 4.671875 -23.367188 4.734375 -23.609375 C 4.878906 -24.140625 5.609375 -24.597656 6.921875 -24.984375 C 8.234375 -25.378906 9.609375 -25.578125 11.046875 -25.578125 Z M 11.046875 -25.578125 "/></g></g></g><g fill="#333333" fill-opacity="1"><g transform="translate(196.886016, 47.107341)"><g><path d="M 18.34375 -18.3125 C 19.351562 -18.3125 20.164062 -17.898438 20.78125 -17.078125 C 21.394531 -16.253906 21.703125 -15.140625 21.703125 -13.734375 C 21.703125 -12.515625 21.484375 -11.203125 21.046875 -9.796875 C 20.191406 -6.953125 18.820312 -4.273438 16.9375 -1.765625 C 15.0625 0.742188 12.90625 2.757812 10.46875 4.28125 C 8.03125 5.8125 5.601562 6.578125 3.1875 6.578125 C 1.988281 6.578125 0.953125 6.367188 0.078125 5.953125 C -0.785156 5.535156 -1.441406 4.976562 -1.890625 4.28125 C -2.335938 3.59375 -2.5625 2.859375 -2.5625 2.078125 C -2.5625 1.734375 -2.503906 1.351562 -2.390625 0.9375 C -2.179688 0.289062 -1.832031 -0.203125 -1.34375 -0.546875 C -0.863281 -0.898438 -0.289062 -1.078125 0.375 -1.078125 C 1.4375 -1.078125 2.304688 -0.710938 2.984375 0.015625 C 3.671875 0.742188 4.109375 1.742188 4.296875 3.015625 C 5.765625 2.941406 7.125 2.304688 8.375 1.109375 C 7.195312 0.898438 6.328125 0.503906 5.765625 -0.078125 C 5.203125 -0.671875 4.816406 -1.59375 4.609375 -2.84375 L 3.21875 -11.3125 C 3.144531 -11.75 3.046875 -12.054688 2.921875 -12.234375 C 2.796875 -12.410156 2.628906 -12.5 2.421875 -12.5 C 2.265625 -12.5 2.070312 -12.414062 1.84375 -12.25 C 1.625 -12.09375 1.472656 -12.015625 1.390625 -12.015625 C 1.203125 -12.015625 1.109375 -12.207031 1.109375 -12.59375 C 1.109375 -12.914062 1.164062 -13.265625 1.28125 -13.640625 C 1.695312 -14.953125 2.46875 -16.0625 3.59375 -16.96875 C 4.726562 -17.882812 6.046875 -18.34375 7.546875 -18.34375 C 9.023438 -18.34375 10.113281 -17.90625 10.8125 -17.03125 C 11.519531 -16.15625 11.976562 -14.804688 12.1875 -12.984375 L 13.21875 -5.359375 C 13.289062 -4.785156 13.5 -4.5 13.84375 -4.5 C 14.257812 -4.5 14.742188 -4.875 15.296875 -5.625 C 15.847656 -6.375 16.390625 -7.441406 16.921875 -8.828125 C 16.234375 -9.453125 15.703125 -10.164062 15.328125 -10.96875 C 14.960938 -11.78125 14.78125 -12.644531 14.78125 -13.5625 C 14.78125 -14.28125 14.875 -14.925781 15.0625 -15.5 C 15.332031 -16.425781 15.757812 -17.125 16.34375 -17.59375 C 16.9375 -18.070312 17.601562 -18.3125 18.34375 -18.3125 Z M 18.34375 -18.3125 "/></g></g></g></svg>