<svg xmlns="http://www.w3.org/2000/svg" xmlns:xlink="http://www.w3.org/1999/xlink" width="100" zoomAndPan="magnify" viewBox="0 0 75 74.999997" height="100" preserveAspectRatio="xMidYMid meet" version="1.0"><defs><clipPath id="86ce59c862"><path d="M 37.5 0 C 16.789062 0 0 16.789062 0 37.5 C 0 58.210938 16.789062 75 37.5 75 C 58.210938 75 75 58.210938 75 37.5 C 75 16.789062 58.210938 0 37.5 0 Z M 37.5 0 " clip-rule="nonzero"/></clipPath><clipPath id="c69e3103a2"><path d="M 0 0 L 75 0 L 75 75 L 0 75 Z M 0 0 " clip-rule="nonzero"/></clipPath><clipPath id="6b29f2f0cb"><path d="M 37.5 0 C 16.789062 0 0 16.789062 0 37.5 C 0 58.210938 16.789062 75 37.5 75 C 58.210938 75 75 58.210938 75 37.5 C 75 16.789062 58.210938 0 37.5 0 Z M 37.5 0 " clip-rule="nonzero"/></clipPath><clipPath id="77347b149b"><rect x="0" width="75" y="0" height="75"/></clipPath></defs><g clip-path="url(#86ce59c862)"><g transform="matrix(1, 0, 0, 1, 0, -0.000000000000001893)"><g clip-path="url(#77347b149b)"><g clip-path="url(#c69e3103a2)"><g clip-path="url(#6b29f2f0cb)"><rect x="-16.5" width="108" fill="#ffffff" height="107.999996" y="-16.499999" fill-opacity="1"/></g></g></g></g></g><path fill="#2f6dbf" d="M 37.488281 -0.0117188 C 58.199219 -0.0117188 74.984375 16.777344 74.984375 37.488281 C 74.984375 58.199219 58.199219 74.984375 37.488281 74.984375 C 16.777344 74.984375 -0.0117188 58.199219 -0.0117188 37.488281 C -0.0117188 16.777344 16.777344 -0.0117188 37.488281 -0.0117188 Z M 37.457031 16.089844 C 43.164062 16.089844 43.675781 24.203125 44.25 26.671875 L 30.824219 26.671875 C 30.824219 21.972656 32.957031 16.089844 37.457031 16.089844 Z M 42.238281 38.53125 L 43.527344 37.316406 C 41.902344 35.40625 40.121094 34.660156 37.71875 34.660156 C 33.746094 34.660156 32.121094 36.929688 32.121094 39.332031 C 32.121094 45.398438 41.769531 43.101562 41.769531 48.183594 C 41.769531 49.9375 40.300781 51.125 37.617188 51.125 C 35.398438 51.125 33.847656 50.199219 32.660156 48.675781 L 31.292969 49.9375 C 32.996094 51.925781 35.035156 52.726562 37.566406 52.726562 C 41.050781 52.726562 43.679688 51.023438 43.679688 47.847656 C 43.679688 41.703125 34.03125 43.640625 34.03125 39.046875 C 34.03125 37.421875 35.191406 36.261719 37.769531 36.261719 C 39.679688 36.261719 41.128906 37.058594 42.238281 38.53125 Z M 28.140625 26.671875 L 18.347656 26.671875 C 16.613281 26.671875 15.933594 27.875 16.160156 29.804688 C 16.339844 31.324219 16.480469 33.328125 16.605469 34.890625 L 17.085938 42.460938 C 17.121094 43.152344 17.210938 43.035156 17.246094 43.726562 L 18.03125 55.253906 C 18.054688 58.445312 19.792969 61.414062 22.929688 61.414062 L 51.828125 61.414062 C 57.46875 61.414062 56.898438 54.453125 57.332031 50.492188 L 58.78125 29.824219 C 58.828125 28.941406 59 28.507812 58.582031 27.65625 C 58.285156 27.054688 57.582031 26.671875 56.722656 26.671875 L 46.773438 26.671875 C 46.773438 21.300781 43.730469 13.5625 37.929688 13.5625 L 36.667969 13.5625 C 33.808594 13.5625 31.339844 16.066406 30.351562 17.980469 C 29.015625 20.574219 28.140625 23.503906 28.140625 26.671875 Z M 28.140625 26.671875 " fill-opacity="1" fill-rule="evenodd"/></svg>